<svg version="1.1" id="design" class="menu__svg menu__svg_design" xmlns="http://www.w3.org/2000/svg" xmlns:xlink="http://www.w3.org/1999/xlink" x="0px" y="0px"
	 viewBox="0 0 512 512" style="enable-background:new 0 0 512 512;" xml:space="preserve">
<g>
	<g>
		<g>
			<path d="M503.467,34.133H84.475C80.51,14.682,63.271,0,42.667,0C19.14,0,0,19.14,0,42.667v426.667C0,492.86,19.14,512,42.667,512
				h460.8c4.719,0,8.533-3.823,8.533-8.533v-460.8C512,37.956,508.186,34.133,503.467,34.133z M17.067,42.667
				c0-14.114,11.486-25.6,25.6-25.6s25.6,11.486,25.6,25.6v392.55c-7.134-5.359-16-8.55-25.6-8.55c-9.6,0-18.466,3.191-25.6,8.55
				V42.667z M494.933,494.933H42.667c-14.114,0-25.6-11.486-25.6-25.6s11.486-25.6,25.6-25.6s25.6,11.486,25.6,25.6
				c0,4.71,3.814,8.533,8.533,8.533s8.533-3.823,8.533-8.533V51.2h409.6V494.933z"/>
			<path d="M119.467,332.8h-8.533c-4.719,0-8.533,3.823-8.533,8.533v128c0,4.71,3.814,8.533,8.533,8.533H230.4
				c4.719,0,8.533-3.823,8.533-8.533V460.8H256h17.067c4.719,0,8.533-3.823,8.533-8.533c0-4.71-3.814-8.533-8.533-8.533h-8.533
				v-102.4c0-4.71-3.814-8.533-8.533-8.533c-4.719,0-8.533,3.823-8.533,8.533v102.4H230.4c-4.719,0-8.533,3.823-8.533,8.533v8.533
				h-102.4V349.867H128c4.719,0,8.533-3.823,8.533-8.533V281.6h110.933v8.533c0,4.71,3.814,8.533,8.533,8.533
				c4.719,0,8.533-3.823,8.533-8.533v-17.067V256c0-4.71-3.814-8.533-8.533-8.533c-4.719,0-8.533,3.823-8.533,8.533v8.533H136.533
				V204.8c0-4.71-3.814-8.533-8.533-8.533h-8.533V85.333h102.4v8.533c0,4.71,3.814,8.533,8.533,8.533h17.067v102.4
				c0,4.71,3.814,8.533,8.533,8.533c4.719,0,8.533-3.823,8.533-8.533V102.4h51.2v51.2c0,4.71,3.814,8.533,8.533,8.533
				s8.533-3.823,8.533-8.533v-51.2h17.067c4.719,0,8.533-3.823,8.533-8.533v-8.533h102.4v110.933h-8.533
				c-4.719,0-8.533,3.823-8.533,8.533v93.867H332.8V204.8c0-4.71-3.814-8.533-8.533-8.533s-8.533,3.823-8.533,8.533v102.4v17.067
				c0,4.71,3.814,8.533,8.533,8.533s8.533-3.823,8.533-8.533v-8.533h110.933v25.6c0,4.71,3.814,8.533,8.533,8.533h8.533V460.8H358.4
				v-8.533c0-4.71-3.814-8.533-8.533-8.533H332.8v-68.267c0-4.71-3.814-8.533-8.533-8.533s-8.533,3.823-8.533,8.533v68.267H307.2
				c-4.719,0-8.533,3.823-8.533,8.533c0,4.71,3.814,8.533,8.533,8.533h17.067h17.067v8.533c0,4.71,3.814,8.533,8.533,8.533h119.467
				c4.719,0,8.533-3.823,8.533-8.533v-128c0-4.71-3.814-8.533-8.533-8.533H460.8v-25.6v-93.867h8.533
				c4.719,0,8.533-3.823,8.533-8.533v-128c0-4.71-3.814-8.533-8.533-8.533H349.867c-4.719,0-8.533,3.823-8.533,8.533v8.533h-17.067
				H256h-17.067V76.8c0-4.71-3.814-8.533-8.533-8.533H110.933c-4.719,0-8.533,3.823-8.533,8.533v128c0,4.71,3.814,8.533,8.533,8.533
				h8.533v59.733V332.8z"/>
			<path d="M162.133,170.667c-4.719,0-8.533,3.823-8.533,8.533s3.814,8.533,8.533,8.533h34.133c4.719,0,8.533-3.823,8.533-8.533
				s-3.814-8.533-8.533-8.533H162.133z"/>
			<path d="M162.133,366.933c-4.719,0-8.533,3.823-8.533,8.533s3.814,8.533,8.533,8.533h34.133c4.719,0,8.533-3.823,8.533-8.533
				s-3.814-8.533-8.533-8.533H162.133z"/>
			<path d="M409.6,384c4.719,0,8.533-3.823,8.533-8.533s-3.814-8.533-8.533-8.533h-34.133c-4.719,0-8.533,3.823-8.533,8.533
				s3.814,8.533,8.533,8.533H409.6z"/>
			<path d="M409.6,187.733c4.719,0,8.533-3.823,8.533-8.533s-3.814-8.533-8.533-8.533h-34.133c-4.719,0-8.533,3.823-8.533,8.533
				s3.814,8.533,8.533,8.533H409.6z"/>
		</g>
	</g>
</g>
<g>
</g>
<g>
</g>
<g>
</g>
<g>
</g>
<g>
</g>
<g>
</g>
<g>
</g>
<g>
</g>
<g>
</g>
<g>
</g>
<g>
</g>
<g>
</g>
<g>
</g>
<g>
</g>
<g>
</g>
</svg>
