<?xml version="1.0" encoding="UTF-8" standalone="no"?>
<!-- Created with Inkscape (http://www.inkscape.org/) -->

<svg
   xmlns:dc="http://purl.org/dc/elements/1.1/"
   xmlns:cc="http://creativecommons.org/ns#"
   xmlns:rdf="http://www.w3.org/1999/02/22-rdf-syntax-ns#"
   xmlns:svg="http://www.w3.org/2000/svg"
   xmlns="http://www.w3.org/2000/svg"
   xmlns:sodipodi="http://sodipodi.sourceforge.net/DTD/sodipodi-0.dtd"
   xmlns:inkscape="http://www.inkscape.org/namespaces/inkscape"
   version="1.1"
   id="svg44"
   width="2537"
   height="415"
   viewBox="0 0 2537 415"
   sodipodi:docname="house-5-section.svg"
   inkscape:version="0.92.1 r15371">
  <metadata
     id="metadata50">
    <rdf:RDF>
      <cc:Work
         rdf:about="">
        <dc:format>image/svg+xml</dc:format>
        <dc:type
           rdf:resource="http://purl.org/dc/dcmitype/StillImage" />
        <dc:title></dc:title>
      </cc:Work>
    </rdf:RDF>
  </metadata>
  <defs
     id="defs48" />
  <sodipodi:namedview
     pagecolor="#ffffff"
     bordercolor="#666666"
     borderopacity="1"
     objecttolerance="10"
     gridtolerance="10"
     guidetolerance="10"
     inkscape:pageopacity="0"
     inkscape:pageshadow="2"
     inkscape:window-width="1920"
     inkscape:window-height="1017"
     id="namedview46"
     showgrid="false"
     inkscape:pagecheckerboard="true"
     inkscape:zoom="1.1839488"
     inkscape:cx="114.31638"
     inkscape:cy="207.5"
     inkscape:window-x="-8"
     inkscape:window-y="-8"
     inkscape:window-maximized="1"
     inkscape:current-layer="svg44" />
  <path
     style="fill:none;stroke:#000000;stroke-width:1px;stroke-linecap:butt;stroke-linejoin:miter;stroke-opacity:1"
     d="m 2298.2413,10.421682 h 183.285 l 16.8926,16.047992 v 73.48291 h 16.8926 l 17.7373,17.737256 -0.8446,92.90942 -133.4518,-0.84463 -0.8446,-37.16377 -85.3077,-2.53389 V 50.119346 l -13.5141,-2.533893 z"
     id="path54"
     inkscape:connector-curvature="0" />
  <path
     style="fill:none;stroke:#000000;stroke-width:1px;stroke-linecap:butt;stroke-linejoin:miter;stroke-opacity:1"
     d="m 2532.2042,210.59926 3.3785,92.90943 -18.5819,21.11578 -19.4265,-0.84463 1.6893,71.79364 -15.2034,14.35873 -112.3359,0.84463 0.8446,-149.49971 -11.8249,-0.84463 v -52.36713 l 38.0084,1.68926 z"
     id="path56"
     inkscape:connector-curvature="0" />
  <path
     style="fill:none;stroke:#000000;stroke-width:1px;stroke-linecap:butt;stroke-linejoin:miter;stroke-opacity:1"
     d="m 2360.744,208.06537 -104.7342,1.68926 v 202.71148 l 115.7145,-1.68927 0.8446,-149.49971 -11.8249,-0.84463 z"
     id="path58"
     inkscape:connector-curvature="0" />
  <path
     style="fill:none;stroke:#000000;stroke-width:1px;stroke-linecap:butt;stroke-linejoin:miter;stroke-opacity:1"
     d="m 2256.0098,209.75463 h -119.9376 l 0.8446,201.86685 119.093,0.84463 z"
     id="path60"
     inkscape:connector-curvature="0" />
  <path
     style="fill:none;stroke:#000000;stroke-width:1px;stroke-linecap:butt;stroke-linejoin:miter;stroke-opacity:1"
     d="m 2136.0722,209.75463 h -126.6947 v 201.86685 h 127.5393 z"
     id="path62"
     inkscape:connector-curvature="0" />
  <path
     style="fill:none;stroke:#000000;stroke-width:1px;stroke-linecap:butt;stroke-linejoin:miter;stroke-opacity:1"
     d="m 2009.3775,209.75463 -0.8446,-201.02221 203.5561,-2.5338934 1.6892,43.9208194 h -19.4265 l 4.2232,122.471514 -87.8417,2.5339 v 30.40672 4.22315 z"
     id="path64"
     inkscape:connector-curvature="0" />
  <path
     style="fill:none;stroke:#000000;stroke-width:1px;stroke-linecap:butt;stroke-linejoin:miter;stroke-opacity:1"
     d="m 2009.3775,209.75463 -128.3839,-0.84463 2.5338,203.55611 125.8501,-0.84463 z"
     id="path66"
     inkscape:connector-curvature="0" />
  <path
     style="fill:none;stroke:#000000;stroke-width:1px;stroke-linecap:butt;stroke-linejoin:miter;stroke-opacity:1"
     d="m 1880.9936,208.91 -117.4038,1.68926 0.8447,201.86685 h 119.0929 z"
     id="path68"
     inkscape:connector-curvature="0" />
  <path
     style="fill:none;stroke:#000000;stroke-width:1px;stroke-linecap:butt;stroke-linejoin:miter;stroke-opacity:1"
     d="m 1763.5898,210.59926 -117.4037,-0.84463 0.8446,202.71148 h 117.4038 z"
     id="path70"
     inkscape:connector-curvature="0" />
  <path
     style="fill:none;stroke:#000000;stroke-width:1px;stroke-linecap:butt;stroke-linejoin:miter;stroke-opacity:1"
     d="m 1646.1861,209.75463 -127.5393,1.68926 0.8446,183.28496 19.4265,19.42652 108.1128,-1.68926 z"
     id="path72"
     inkscape:connector-curvature="0" />
  <path
     style="fill:none;stroke:#000000;stroke-width:1px;stroke-linecap:butt;stroke-linejoin:miter;stroke-opacity:1"
     d="m 1518.6468,211.44389 0.8446,-184.974216 18.5819,-17.737254 182.4403,-1.6892623 1.6893,41.3869263 h -16.048 l 1.6893,123.316146 -86.997,2.53389 V 208.91 Z"
     id="path74"
     inkscape:connector-curvature="0" />
  <path
     style="fill:none;stroke:#000000;stroke-width:1px;stroke-linecap:butt;stroke-linejoin:miter;stroke-opacity:1"
     d="m 2008.5329,8.73242 -202.7115,-2.5338934 1.6892,39.6976634 16.048,6.757049 -0.8446,117.403731 82.7739,3.37852 0.8446,34.62988 103.045,1.68926 z"
     id="path76"
     inkscape:connector-curvature="0" />
  <path
     style="fill:none;stroke:#000000;stroke-width:1px;stroke-linecap:butt;stroke-linejoin:miter;stroke-opacity:1"
     d="M 1519.4914,26.469674 1500.0649,7.8877889 1318.4692,8.73242 l 0.8446,32.940615 10.9803,7.60168 -1.6893,121.626885 48.9886,0.84463 38.0084,-0.84463 0.8446,39.69766 102.2004,0.84463 z"
     id="path78"
     inkscape:connector-curvature="0" />
  <path
     style="fill:none;stroke:#000000;stroke-width:1px;stroke-linecap:butt;stroke-linejoin:miter;stroke-opacity:1"
     d="m 1518.6468,211.44389 0.8446,183.28496 -16.048,16.89263 -114.8698,0.84463 -0.8446,-201.86685 h 28.7174 z"
     id="path80"
     inkscape:connector-curvature="0" />
  <path
     style="fill:none;stroke:#000000;stroke-width:1px;stroke-linecap:butt;stroke-linejoin:miter;stroke-opacity:1"
     d="m 1387.729,210.59926 -119.9377,-0.84463 2.5339,201.86685 118.2484,0.84463 z"
     id="path82"
     inkscape:connector-curvature="0" />
  <path
     style="fill:none;stroke:#000000;stroke-width:1px;stroke-linecap:butt;stroke-linejoin:miter;stroke-opacity:1"
     d="m 1267.7913,209.75463 -114.8698,-1.68926 -1.6893,204.40074 119.093,-0.84463 z"
     id="path84"
     inkscape:connector-curvature="0" />
  <path
     style="fill:none;stroke:#000000;stroke-width:1px;stroke-linecap:butt;stroke-linejoin:miter;stroke-opacity:1"
     d="m 1152.9215,208.06537 -133.4517,2.53389 -1.6893,182.44033 20.2712,21.11578 113.1805,-1.68926 z"
     id="path86"
     inkscape:connector-curvature="0" />
  <path
     style="fill:none;stroke:#000000;stroke-width:1px;stroke-linecap:butt;stroke-linejoin:miter;stroke-opacity:1"
     d="M 1019.4698,210.59926 1017.7805,25.625043 1037.207,6.1985266 1220.492,7.0431577 V 43.362297 l -10.9802,5.912418 2.5339,118.248355 -89.5309,5.06779 0.8446,36.31914 z"
     id="path88"
     inkscape:connector-curvature="0" />
  <path
     style="fill:none;stroke:#000000;stroke-width:1px;stroke-linecap:butt;stroke-linejoin:miter;stroke-opacity:1"
     d="M 1017.7805,25.625043 1000.0433,7.8877889 814.22442,6.1985266 l 0.84463,41.3869264 17.73726,4.223155 -3.37853,119.092992 87.84164,2.53389 v 38.0084 l 102.20038,-0.84463 z"
     id="path90"
     inkscape:connector-curvature="0" />
  <path
     style="fill:none;stroke:#000000;stroke-width:1px;stroke-linecap:butt;stroke-linejoin:miter;stroke-opacity:1"
     d="m 1019.4698,210.59926 -131.76247,-0.84463 0.84463,201.86685 111.49134,1.68926 17.7372,-20.27115 z"
     id="path92"
     inkscape:connector-curvature="0" />
  <path
     style="fill:none;stroke:#000000;stroke-width:1px;stroke-linecap:butt;stroke-linejoin:miter;stroke-opacity:1"
     d="m 887.70733,209.75463 h -114.0252 l -0.84463,203.55611 115.71446,-1.68926 z"
     id="path94"
     inkscape:connector-curvature="0" />
  <path
     style="fill:none;stroke:#000000;stroke-width:1px;stroke-linecap:butt;stroke-linejoin:miter;stroke-opacity:1"
     d="M 773.68213,209.75463 654.58914,208.91 l -0.84464,205.24537 119.093,-0.84463 z"
     id="path96"
     inkscape:connector-curvature="0" />
  <path
     style="fill:none;stroke:#000000;stroke-width:1px;stroke-linecap:butt;stroke-linejoin:miter;stroke-opacity:1"
     d="m 654.58914,208.91 -128.38394,0.84463 1.68926,201.86685 125.85004,2.53389 z"
     id="path98"
     inkscape:connector-curvature="0" />
  <path
     style="fill:none;stroke:#000000;stroke-width:1px;stroke-linecap:butt;stroke-linejoin:miter;stroke-opacity:1"
     d="M 526.2052,209.75463 527.04983,6.1985266 654.58914,8.73242 l 71.79364,-0.8446311 0.84463,41.3869261 -16.04799,2.533893 2.5339,119.092992 -85.30775,2.53389 v 34.62988 z"
     id="path100"
     inkscape:connector-curvature="0" />
  <path
     style="fill:none;stroke:#000000;stroke-width:1px;stroke-linecap:butt;stroke-linejoin:miter;stroke-opacity:1"
     d="M 527.04983,6.1985266 H 324.33836 V 47.585453 l 19.42652,4.223155 -4.22316,117.403732 84.46311,5.91242 3.37853,35.4745 98.82184,-0.84463 z"
     id="path102"
     inkscape:connector-curvature="0" />
  <path
     style="fill:none;stroke:#000000;stroke-width:1px;stroke-linecap:butt;stroke-linejoin:miter;stroke-opacity:1"
     d="m 526.2052,209.75463 -129.22856,0.84463 4.22315,202.71148 126.69467,-1.68926 z"
     id="path104"
     inkscape:connector-curvature="0" />
  <path
     style="fill:none;stroke:#000000;stroke-width:1px;stroke-linecap:butt;stroke-linejoin:miter;stroke-opacity:1"
     d="m 396.97664,210.59926 -118.24836,0.84463 3.37852,201.02222 119.09299,0.84463 z"
     id="path106"
     inkscape:connector-curvature="0" />
  <path
     style="fill:none;stroke:#000000;stroke-width:1px;stroke-linecap:butt;stroke-linejoin:miter;stroke-opacity:1"
     d="m 278.72828,211.44389 -102.20037,-0.84463 2.53389,48.98861 -15.20336,0.84463 1.68926,152.87824 116.5591,-0.84463 z"
     id="path108"
     inkscape:connector-curvature="0" />
  <path
     style="fill:none;stroke:#000000;stroke-width:1px;stroke-linecap:butt;stroke-linejoin:miter;stroke-opacity:1"
     d="M 176.52791,210.59926 3.3785246,209.75463 v 97.97721 l 15.2033604,15.20337 20.271148,1.68926 v 68.41512 l 16.892622,18.58189 109.802045,1.68926 -1.68926,-152.87824 15.20336,-0.84463 z"
     id="path110"
     inkscape:connector-curvature="0" />
  <path
     style="fill:none;stroke:#000000;stroke-width:1px;stroke-linecap:butt;stroke-linejoin:miter;stroke-opacity:1"
     d="M 3.3785246,209.75463 2.5338934,116.84521 20.271147,98.263321 37.16377,97.41869 38.008401,26.469674 51.5225,12.955576 237.34135,9.5770512 V 48.430084 l -15.20336,1.689262 0.84463,119.092994 -84.46311,4.22315 v 37.16377 z"
     id="path112"
     inkscape:connector-curvature="0" />
</svg>
