<?xml version="1.0" encoding="UTF-8" standalone="no"?>
<!-- Created with Inkscape (http://www.inkscape.org/) -->

<svg
  xmlns:svg="http://www.w3.org/2000/svg"
  xmlns="http://www.w3.org/2000/svg"
   version="1.1"
   id="svg10"
   viewBox="0 0 1732 784">
  <metadata
     id="metadata16">
    <rdf:RDF>
      <cc:Work
         rdf:about="">
        <dc:format>image/svg+xml</dc:format>
        <dc:type
           rdf:resource="http://purl.org/dc/dcmitype/StillImage" />
        <dc:title></dc:title>
      </cc:Work>
    </rdf:RDF>
  </metadata>
  <defs
     id="defs14" />
  <sodipodi:namedview
     pagecolor="#ffffff"
     bordercolor="#666666"
     borderopacity="1"
     objecttolerance="10"
     gridtolerance="10"
     guidetolerance="10"
     inkscape:pageopacity="0"
     inkscape:pageshadow="2"
     inkscape:window-width="1920"
     inkscape:window-height="1017"
     id="namedview12"
     showgrid="false"
     inkscape:zoom="0.99884527"
     inkscape:cx="866"
     inkscape:cy="392"
     inkscape:window-x="-8"
     inkscape:window-y="-8"
     inkscape:window-maximized="1"
     inkscape:current-layer="svg10" />
  <path
     style="fill:none;stroke:#000000;stroke-width:1px;stroke-linecap:butt;stroke-linejoin:miter;stroke-opacity:1"
     d="m 632.73064,541.72023 -180.2081,-125.14451 -19.02196,-174.20115 16.0185,-3.00347 35.04046,-20.02312 41.0474,-4.00463 18.02081,-2.00231 165.19075,83.09595 5.00578,91.10521 -11.01272,1.00115 9.01041,118.13642 z"
     id="path20"
     inkscape:connector-curvature="0" />
  <path
     style="fill:none;stroke:#000000;stroke-width:1px;stroke-linecap:butt;stroke-linejoin:miter;stroke-opacity:1"
     d="m 708.8185,296.43699 -8.00925,-134.15491 40.04624,-20.02312 40.04624,-4.00462 176.20347,66.0763 -6.00693,86.09942 -74.08555,35.04046 -75.08671,31.03584 -92.10636,-25.0289 z"
     id="path22"
     inkscape:connector-curvature="0" />
  <path
     style="fill:none;stroke:#000000;stroke-width:1px;stroke-linecap:butt;stroke-linejoin:miter;stroke-opacity:1"
     d="m 934.07861,192.31676 3.00347,-113.130633 38.04393,-25.028902 35.04049,5.005781 500.578,142.164164 -17.0196,74.08555 -29.0336,6.00693 -27.0312,-4.00462 -22.0254,16.0185 -43.0497,9.0104 -14.0162,83.09595 -220.2543,-82.09479 2.0023,-29.03353 -42.0486,-29.03353 -44.0509,-4.00462 -8.0092,14.01619 -92.10637,-24.02775 3.00347,-27.03121 z"
     id="path24"
     inkscape:connector-curvature="0" />
  <path
     style="fill:none;stroke:#000000;stroke-width:1px;stroke-linecap:butt;stroke-linejoin:miter;stroke-opacity:1"
     d="m 1342.5503,493.66474 30.0347,-191.22081 43.0497,-9.0104 22.0254,-16.0185 27.0312,4.00462 45.0521,-11.01271 4.0046,-10.01156 24.0277,-14.01619 26.0301,3.00347 1.0011,8.00925 9.0104,-17.01966 67.0775,8.00925 52.0601,38.04393 -10.0115,8.00925 -43.0498,172.19885 -213.2462,85.09826 z"
     id="path26"
     inkscape:connector-curvature="0" />
  <path
     style="fill:none;stroke:#000000;stroke-width:1px;stroke-linecap:butt;stroke-linejoin:miter;stroke-opacity:1"
     d="m 446.51561,360.51098 -12.01388,14.01619 -49.05664,7.00809 -25.02891,-9.0104 -11.01271,-91.10521 2.00231,-14.01618 23.02659,-10.01156 37.04277,-2.00231 22.02544,-13.01503 51.05896,-23.02659 59.06821,-6.00694 114.13179,-35.04046 -1.00116,-18.02081 23.02659,-8.00925 21.02428,10.01156 40.04624,-20.02312 40.04624,-4.00462 75.08671,-22.02544 v -12.01387 l 50.0578,-12.013874 36.04162,17.019654 -8.00925,83.09595 -153.17688,-54.06242 -40.04624,4.00462 -40.04624,20.02312 8.00925,118.13642 -34.03931,-1.00116 -131.15144,-66.0763 -59.06821,6.00694 -51.05896,23.02659 z"
     id="path28"
     inkscape:connector-curvature="0"
     sodipodi:nodetypes="ccccccccccccccccccccccccccccccc" />
</svg>
