<?xml version="1.0" encoding="UTF-8" standalone="no"?>
<svg
   xmlns:dc="http://purl.org/dc/elements/1.1/"
   xmlns:cc="http://creativecommons.org/ns#"
   xmlns:rdf="http://www.w3.org/1999/02/22-rdf-syntax-ns#"
   xmlns:svg="http://www.w3.org/2000/svg"
   xmlns="http://www.w3.org/2000/svg"
   xmlns:sodipodi="http://sodipodi.sourceforge.net/DTD/sodipodi-0.dtd"
   xmlns:inkscape="http://www.inkscape.org/namespaces/inkscape"
   id="svg10"
   width="4666.6665"
   height="2448"
   viewBox="0 0 4666.6665 2448"
   version="1.1"
   sodipodi:docname="object.svg"
   inkscape:version="0.92.1 r15371">
  <metadata
     id="metadata19">
    <rdf:RDF>
      <cc:Work
         rdf:about="">
        <dc:format>image/svg+xml</dc:format>
        <dc:type
           rdf:resource="http://purl.org/dc/dcmitype/StillImage" />
        <dc:title></dc:title>
      </cc:Work>
    </rdf:RDF>
  </metadata>
  <sodipodi:namedview
     pagecolor="#ffffff"
     bordercolor="#666666"
     borderopacity="1"
     objecttolerance="10"
     gridtolerance="10"
     guidetolerance="10"
     inkscape:pageopacity="0"
     inkscape:pageshadow="2"
     inkscape:window-width="1920"
     inkscape:window-height="1017"
     id="namedview17"
     showgrid="false"
     inkscape:pagecheckerboard="true"
     inkscape:zoom="0.34640523"
     inkscape:cx="2282.8144"
     inkscape:cy="1224"
     inkscape:window-x="-8"
     inkscape:window-y="-8"
     inkscape:window-maximized="1"
     inkscape:current-layer="svg10" />
  <defs
     id="defs14" />
  <path
     style="fill:none;stroke:#000000;stroke-width:1px;stroke-linecap:butt;stroke-linejoin:miter;stroke-opacity:1"
     d="m 2805.9623,1564.6415 -1013.2642,591.7925 -210.7358,-178.9812 -60.6227,-588.9056 20.2076,-8.6604 11.5471,23.0943 121.2453,-51.9622 v -17.3208 l 69.283,-49.0755 63.5095,8.6604 112.5849,-51.9622 5.7736,-25.9812 31.7547,-8.6604 8.6604,17.3208 98.1509,-40.4151 46.1887,-51.9623 77.9434,-2.8868 92.3773,-34.6415 v -34.6415 l 23.0944,-2.8868 14.4339,17.3208 86.6038,-31.7547 2.8868,-14.434 34.6415,-40.4151 66.3962,2.8868 83.717,-34.6415 2.8868,-23.0943 23.0944,-5.7736 98.1509,31.7547 121.2453,75.0566 z"
     id="path22"
     inkscape:connector-curvature="0" />
  <path
     style="fill:none;stroke:#000000;stroke-width:1px;stroke-linecap:butt;stroke-linejoin:miter;stroke-opacity:1"
     d="m 3432.3962,1625.2642 63.5095,-516.7359 34.6415,11.5472 80.8302,-14.434 83.7169,-57.7358 86.6038,2.8868 129.9057,-49.0755 83.717,-54.8491 77.9434,5.7736 23.0943,-5.7736 2.8868,-37.5283 49.0755,25.9812 118.3584,17.3207 115.4717,83.717 46.1887,25.9811 -20.2075,23.0944 -135.6793,493.6415 -560.0377,262.6981 -20.2076,8.6604 -268.4717,-199.1887 z"
     id="path24"
     inkscape:connector-curvature="0" />
  <path
     style="fill:none;stroke:#000000;stroke-width:1px;stroke-linecap:butt;stroke-linejoin:miter;stroke-opacity:1"
     d="m 1348.1321,1804.2453 -441.67927,-366.6227 -83.71698,-461.8867 -25.98113,-11.5472 2.88679,-25.9811 178.98113,-83.717 121.24526,-2.8868 34.6415,-14.434 v 25.9811 l 418.5849,245.3774 31.7548,-11.5472 14.4339,282.9057 -46.1887,23.0943 -11.5471,-23.0943 -20.2076,8.6604 34.6415,334.8679 z"
     id="path26"
     inkscape:connector-curvature="0" />
  <path
     style="fill:none;stroke:#000000;stroke-width:1px;stroke-linecap:butt;stroke-linejoin:miter;stroke-opacity:1"
     d="m 1610.8302,687.0566 127.0189,-63.5094 129.9056,-8.6604 476.3208,202.0755 -25.9812,256.9245 -14.4339,-17.3208 -23.0944,2.8868 v 34.6415 l -92.3773,34.6415 -77.9434,2.8868 -46.1887,51.9623 -98.1509,40.4151 -8.6604,-17.3208 -31.7547,8.6604 -5.7736,25.9812 -49.0755,28.8679 -216.5094,-115.4717 z"
     id="path28"
     inkscape:connector-curvature="0" />
  <path
     style="fill:none;stroke:#000000;stroke-width:1px;stroke-linecap:butt;stroke-linejoin:miter;stroke-opacity:1"
     d="m 2344.0755,816.9623 -11.5472,-378.1698 -2.8868,-17.3208 40.4151,-8.6604 57.7359,-37.5283 63.5094,2.8868 31.7547,-11.5472 v 17.3208 l 31.7547,17.3208 17.3208,-11.5472 h 34.6415 l 46.1887,31.7547 11.5471,14.434 106.8114,34.6415 23.0943,-11.5472 57.7358,2.8868 51.9623,40.4151 v 8.6604 l 60.6226,11.5471 11.5472,-14.4339 23.0944,11.5471 -5.7736,17.3208 46.1887,17.3208 8.6603,-17.3208 57.7359,5.7736 75.0566,49.0755 v 5.7735 l 57.7358,17.3208 20.2076,-11.5472 17.3207,2.8868 -5.7736,23.0944 40.4151,11.5471 106.8114,-5.7736 54.849,40.4151 2.8868,11.5472 161.6604,54.8491 5.7736,-14.434 83.717,8.6604 77.9434,46.1887 5.7735,11.5471 60.6227,28.868 49.0755,-23.0944 -8.6604,49.0755 -14.434,8.6604 -17.3207,147.2264 -98.151,46.1887 -86.6038,-2.8868 -83.7169,57.7358 -80.8302,14.434 -34.6415,-11.5472 -28.868,219.3962 -629.3207,-262.6981 v -31.7547 l -121.2453,-75.0566 -98.1509,-31.7547 -23.0944,5.7736 -2.8868,23.0943 -248.2641,-138.566"
     id="path30"
     inkscape:connector-curvature="0" />
  <path
     style="fill:none;stroke:#000000;stroke-width:1px;stroke-linecap:butt;stroke-linejoin:miter;stroke-opacity:1"
     d="m 880.4717,1270.1887 -80.83019,31.7547 h -92.37736 l -57.73585,-34.6415 -49.07547,-248.2642 31.75472,-43.30185 83.71698,-28.86793 83.71698,-8.66032 178.98113,-83.717 155.88676,-17.3208 404.151,-141.45282 5.7736,-31.75472 37.5283,-20.20754 46.1886,14.43396 109.6982,-34.64148 554.2641,-170.32078 49.0755,25.98113 2.8868,274.24528 -86.6038,28.86792 -389.717,-167.43395 -129.9056,8.6604 -127.0189,63.5094 34.6415,320.434 -181.8679,66.3962 -329.0944,-236.717 -155.88676,17.3208 -178.98113,83.717 z"
     id="path55"
     inkscape:connector-curvature="0" />
</svg>
